# xmcd
#
# Track frame offsets:
#	150
#	13350
#	28763
#	43613
#	65850
#	86013
#	101763
#	118488
#	132613
#	147825
#	165375
#	181500
#
# Disc length: 2668 seconds
#
# Revision: 0
# Processed by: cddbd v1.5.2PL0 Copyright (c) Steve Scherf et al.
# Submitted via: audiograbber 1.83.01
#
DISCID=af0a6a0c
DTITLE=Brownie McGhee - Blues Is Truth
DYEAR=1976
DGENRE=Blues
TTITLE0=The Blues Had A Baby
TTITLE1=I'm Going To Keep On Loving
TTITLE2=Walk - On
TTITLE3=Rainy Day
TTITLE4=Christina
TTITLE5=Don't Dog Your Woman
TTITLE6=Mean And Evil
TTITLE7=Wine Sporty Orty
TTITLE8=Blues Is Truth
TTITLE9=Bunkhouse
TTITLE10=Key To The Highway
TTITLE11=Blues On Parade
EXTD=
EXTT0=
EXTT1=
EXTT2=
EXTT3=
EXTT4=
EXTT5=
EXTT6=
EXTT7=
EXTT8=
EXTT9=
EXTT10=
EXTT11=
PLAYORDER=
